<svg xmlns="http://www.w3.org/2000/svg" xmlns:xlink="http://www.w3.org/1999/xlink" width="42" height="42"
     viewBox="0 0 42 42">
    <defs>
        <path id="prefix__a" d="M0.08 0.08L2.022 0.08 2.022 2.045 0.08 2.045z"/>
        <path id="prefix__c" d="M0 0.855L10.762 0.855 10.762 19 0 19z"/>
        <path id="prefix__e" d="M0.811 0.855L11.574 0.855 11.574 19 0.811 19z"/>
    </defs>
    <g fill="none" fill-rule="evenodd" transform="translate(2 2)">
        <g>
            <path fill="#2A7AF2" d="M9.182 9.156C7.437 6.222 3.675 4.725 1.584 6.087c-2.007 1.303-.915 5.268 1.398 6.82 1.95 1.308 4.79 3.968 4.972 6.802-.079-1.772 2.966-7.613 1.228-10.553M4.888 16.315c.871 2.437-2.079 3.575-2.914 6.176-.688 2.155 1.015 5.062 3.668 4.092 1.529-.563 2.259-2.213 2.155-4.43-.1-2.175-1.813-4.914-2.91-5.838M1.433.025C.673.193.006.97 0 2.073c-.008 1.101 1.597 2.096 1.764 3.143C3.067 4.212 3.6 2.92 3.514 1.754c-.09-1.167-1.32-1.9-2.08-1.73M4.818 4.628C5.9 4.226 6.53 3.472 6.716 2.668c.18-.798-.49-1.548-1.037-1.595-.542-.045-1.153.338-1.389 1.073-.236.741.632 1.748.528 2.482M7.413 5.705c.966-.36 1.529-1.033 1.69-1.744.167-.715-.43-1.38-.917-1.421-.487-.043-1.032.3-1.24.954-.208.659.56 1.554.467 2.21M8.946 7.152c.874-.021 1.504-.396 1.84-.92.329-.526.036-1.23-.337-1.396-.378-.167-.91-.044-1.26.417-.348.467.018 1.398-.243 1.899" transform="translate(14.4 5.6)"/>
            <g transform="translate(14.4 5.6) translate(9.767 6.962)">
                <mask id="prefix__b" fill="#fff">
                    <use xlink:href="#prefix__a"/>
                </mask>
                <path fill="#2A7AF2" d="M.554.394C.183.756.372 1.616.08 2.021c.766.104 1.371-.143 1.735-.552.358-.416.204-1.068-.104-1.265C1.403.002.925.036.554.394" mask="url(#prefix__b)"/>
            </g>
        </g>
        <circle cx="19.2" cy="19.2" r="19.2" stroke="#2A7AF2" stroke-width="2.4"/>
    </g>
</svg>
